<svg xmlns="http://www.w3.org/2000/svg" width="67" height="68" viewBox="0 0 67 68"><defs><style>.a{fill:#f58e81;font-size:12px;font-family:Gibson-SemiBold, Gibson;font-weight:600;}.b,.d{fill:none;}.b{stroke:#f58e81;stroke-linejoin:round;stroke-width:3px;}.c{stroke:none;}</style></defs><g transform="translate(-277 -371)"><text class="a" transform="translate(309 437)"><tspan x="-12.828" y="0">Chat</tspan></text><g class="b" transform="translate(314 387)"><path class="c" d="M12,0h6A12,12,0,0,1,30,12V28a2,2,0,0,1-2,2H12A12,12,0,0,1,0,18V12A12,12,0,0,1,12,0Z"/><path class="d" d="M12,1.5h6A10.5,10.5,0,0,1,28.5,12V28a.5.5,0,0,1-.5.5H12A10.5,10.5,0,0,1,1.5,18V12A10.5,10.5,0,0,1,12,1.5Z"/></g><g class="b" transform="translate(277 371)"><path class="c" d="M12,0h6A12,12,0,0,1,30,12v6A12,12,0,0,1,18,30H1a1,1,0,0,1-1-1V12A12,12,0,0,1,12,0Z"/><path class="d" d="M12,1.5h6A10.5,10.5,0,0,1,28.5,12v6A10.5,10.5,0,0,1,18,28.5H2a.5.5,0,0,1-.5-.5V12A10.5,10.5,0,0,1,12,1.5Z"/></g></g></svg>