<svg xmlns="http://www.w3.org/2000/svg" xmlns:xlink="http://www.w3.org/1999/xlink" width="50.746" height="35.248" viewBox="0 0 50.746 35.248"><defs><style>.a{fill:none;}.b{clip-path:url(#a);}.c{fill:#ea847c;}</style><clipPath id="a"><rect class="a" width="24.57" height="24.57"/></clipPath></defs><g transform="translate(-163 -375.753)"><g class="b" transform="translate(163 386.43)"><path class="c" d="M0,24.57V21.5c0-3.379,5.528-6.143,12.285-6.143S24.57,18.12,24.57,21.5V24.57ZM6.142,6.143a6.142,6.142,0,1,1,6.143,6.142A6.143,6.143,0,0,1,6.142,6.143Z"/></g><g class="b" transform="translate(189.176 375.753)"><path class="c" d="M0,24.57V21.5c0-3.379,5.528-6.143,12.285-6.143S24.57,18.12,24.57,21.5V24.57ZM6.142,6.143a6.142,6.142,0,1,1,6.143,6.142A6.143,6.143,0,0,1,6.142,6.143Z"/></g></g></svg>
