<svg xmlns="http://www.w3.org/2000/svg" xmlns:xlink="http://www.w3.org/1999/xlink" width="375" height="61.543" viewBox="0 0 375 61.543"><defs><style>.a{fill:none;}.b{clip-path:url(#a);}.c{fill:#ea5045;}.d{clip-path:url(#c);}.e{fill:#fff;}</style><clipPath id="a"><rect class="a" width="375" height="61.543"/></clipPath><clipPath id="c"><rect class="a" width="16" height="16"/></clipPath></defs><g class="b"><g class="b"><rect class="c" width="375" height="61.543"/></g><g class="d" transform="translate(333 22.282)"><path class="e" d="M-6160,14V12h10v2Zm0-6V6h16V8Zm0-6V0h16V2Z" transform="translate(6160 1)"/><rect class="a" width="16" height="16" transform="translate(0)"/></g><g transform="translate(-133.434 -78.06)"><g transform="translate(152 100.779)"><g transform="translate(0 0)"><path class="e" d="M108.664,0H98.723V2.5H108.5c3.355,0,4.378,1.064,4.623,2.7H103.1c-3.723,0-5.4,1.432-5.4,4.664s1.677,4.7,5.441,4.7h12.437v-8.3C115.619,2.046,113.328,0,108.664,0m4.541,12.11h-9.778c-3.068,0-3.191-.7-3.191-2.25s.327-2.168,3.232-2.168h9.7Z" transform="translate(-57.73 0)"/><path class="e" d="M49.418,9.287H59.36c3.723,0,5.4-1.432,5.4-4.623S63.124,0,59.319,0H54c-6.3,0-7.2,3.518-7.2,7.323s.9,7.282,7.159,7.282H64.146V12.151H54.164c-3.437,0-4.418-.9-4.746-2.823m4.746-6.914h4.909c2.9,0,3.191.7,3.191,2.25s-.286,2.127-3.232,2.127H49.3c.082-3.068.859-4.377,4.868-4.377" transform="translate(-27.654)"/><path class="e" d="M14.319,0,2.455,11.332V0H0V14.605H2.618L8.3,9.164l6.464,5.441h3.887l-8.55-7.159L17.878,0Z"/></g></g></g></g></svg>
